<svg xmlns="http://www.w3.org/2000/svg" width="122" height="122" viewBox="0 0 122 122"><defs><style>.a{fill:none;}.b{font-size:18px;font-family:Montserrat-Bold, Montserrat;font-weight:700;}.b,.c{opacity:0.8;}</style></defs><g transform="translate(0 -0.179)"><rect class="a" width="122" height="122" transform="translate(0 0.179)"/><g transform="translate(0 16.059)"><text class="b" transform="translate(0 62.837)"><tspan x="26.647" y="18">HOGAR</tspan></text><g class="c" transform="translate(35.075 0)"><path d="M225,146.934h4.994a1,1,0,0,0,1-1v-4.495a3.5,3.5,0,0,0-6.991,0v4.495A1,1,0,0,0,225,146.934Zm1-5.493a1.5,1.5,0,1,1,3,0v3.5h-3Z" transform="translate(-201.627 -124.318)"/><path d="M48.445,46.171V34.307a3.008,3.008,0,0,0,.77-.1,2.992,2.992,0,0,0,.728-5.48L36.46,20.94V17.372a3,3,0,0,0,2.989-3V10.6a3,3,0,0,0-1.7-2.7l-10.388-6a2.986,2.986,0,0,0-1.484-.4h-.007a2.99,2.99,0,0,0-1.488.4L13.945,7.927A2.981,2.981,0,0,0,12.3,10.6v1.776a3,3,0,0,0,2.98,3V20.94l-2.689,1.552a1,1,0,0,0,1,1.73l1.69-.976v2.3L3.79,32.174a.994.994,0,0,1-1-1.72L5.8,28.717a1,1,0,0,0-1-1.73l-3.01,1.738A2.992,2.992,0,0,0,2.521,34.2a3.007,3.007,0,0,0,.77.1V46.12H3.261a3.261,3.261,0,1,0,0,6.522H47.877a3.261,3.261,0,0,0,.569-6.471Zm.5-15.717a.994.994,0,1,1-1,1.72L36.46,25.542v-2.3ZM14.294,12.378V10.6a1,1,0,0,1,.561-.9c.021-.01.041-.021.061-.032L25.375,3.634a.976.976,0,0,1,.493-.132h0a.972.972,0,0,1,.489.131L36.783,9.651q.041.024.084.043a1,1,0,0,1,.584.909v3.772a1,1,0,1,1-2,0V11.747a1,1,0,0,0-.5-.865L26.368,5.924a1,1,0,0,0-1,0l-8.578,4.952a1,1,0,0,0-.5.865v.636a1,1,0,1,1-2,0ZM5.289,33.615l11.486-6.631a1,1,0,0,0,.5-.865v-11.5a2.989,2.989,0,0,0,1.015-2.245v-.059l7.579-4.376,7.587,4.38v2.052a2.989,2.989,0,0,0,1.007,2.238v9.506a1,1,0,0,0,.5.865l11.486,6.631V46.121H30.862V37.605a4.994,4.994,0,0,0-9.988,0v6.708a16.181,16.181,0,0,0-5.888-1.335,9.065,9.065,0,0,0-4.932,1.7,7.27,7.27,0,0,1-3.992,1.438H5.289V33.615Zm23.575,12.5a19.7,19.7,0,0,1-5.993-1.081V37.605a3,3,0,1,1,5.993,0Zm19.012,4.532H3.261a1.263,1.263,0,1,1,0-2.527h2.8a9.206,9.206,0,0,0,5.027-1.728,7.139,7.139,0,0,1,3.9-1.414,14.839,14.839,0,0,1,5.359,1.272,23.791,23.791,0,0,0,9.093,1.87H47.877a1.263,1.263,0,1,1,0,2.527Z" transform="translate(0 -1.505)"/><path d="M93.956,326.44H98.95a1,1,0,0,0,1-1v-3.5a3.5,3.5,0,0,0-6.991,0v3.5A1,1,0,0,0,93.956,326.44Zm1-4.495a1.5,1.5,0,0,1,3,0v2.5h-3Z" transform="translate(-83.673 -286.794)"/><path d="M356.043,326.44h4.994a1,1,0,0,0,1-1v-3.5a3.5,3.5,0,1,0-6.991,0v3.5A1,1,0,0,0,356.043,326.44Zm1-4.495a1.5,1.5,0,0,1,3,0v2.5h-3Z" transform="translate(-319.583 -286.794)"/><path d="M83.06,234.795a1,1,0,0,0,0-2h0a1,1,0,0,0,0,2Z" transform="translate(-73.865 -209.696)"/></g></g></g></svg>