<svg xmlns="http://www.w3.org/2000/svg" width="122" height="122" viewBox="0 0 122 122"><defs><style>.a{fill:none;}.b{font-size:18px;font-family:Montserrat-Bold, Montserrat;font-weight:700;}.b,.c{opacity:0.8;}</style></defs><g transform="translate(0 -0.359)"><rect class="a" width="122" height="122" transform="translate(0 0.359)"/><g transform="translate(0 19.918)"><text class="b" transform="translate(0 56.412)"><tspan x="16.927" y="18">EVENTOS</tspan></text><g class="c" transform="translate(39.65 0)"><path d="M37.989,3.618H34.069V2.467a2.467,2.467,0,0,0-4.934,0V3.618H15.321V2.467a2.467,2.467,0,1,0-4.934,0V3.648a.82.82,0,0,0-.219-.03H6.892A4.116,4.116,0,0,0,2.781,7.729V21.735a.822.822,0,0,0,1.645,0V12.087H34.069a.822.822,0,1,0,0-1.645H4.426V7.729A2.47,2.47,0,0,1,6.892,5.262h3.276a.824.824,0,0,0,.219-.03V6.29a2.467,2.467,0,0,0,4.934,0V5.262H29.135V6.29a2.467,2.467,0,0,0,4.934,0V5.262h3.919a2.47,2.47,0,0,1,2.467,2.467V38.975a1.481,1.481,0,1,1-2.961,0V36.848a.822.822,0,0,0-.822-.822H27.107a.822.822,0,1,0,0,1.645H35.85v1.3a3.106,3.106,0,0,0,.374,1.481H3.125a1.482,1.482,0,0,1-1.48-1.48V37.67h18.4a.822.822,0,1,0,0-1.645H11.833a6.743,6.743,0,1,0-8.787,0H.822A.822.822,0,0,0,0,36.848v2.128A3.128,3.128,0,0,0,3.125,42.1h35.85A3.129,3.129,0,0,0,42.1,38.975V7.729A4.116,4.116,0,0,0,37.989,3.618ZM13.677,6.29a.822.822,0,1,1-1.645,0V2.467a.822.822,0,1,1,1.645,0Zm18.748,0a.822.822,0,1,1-1.645,0V2.467a.822.822,0,0,1,1.645,0ZM2.342,30.917a5.1,5.1,0,1,1,5.1,5.1A5.1,5.1,0,0,1,2.342,30.917Z"/><g transform="translate(37.104 10.443)"><path d="M452.644,127.241a.822.822,0,1,0,.241.581A.828.828,0,0,0,452.644,127.241Z" transform="translate(-451.24 -127)"/></g><g transform="translate(23.153 36.026)"><path d="M282.983,438.37a.823.823,0,1,0,.241.581A.827.827,0,0,0,282.983,438.37Z" transform="translate(-281.58 -438.13)"/></g><g transform="translate(15.479 24.997)"><path d="M191.37,304a3.125,3.125,0,1,0,3.125,3.125A3.128,3.128,0,0,0,191.37,304Zm0,4.6a1.48,1.48,0,1,1,1.48-1.48A1.482,1.482,0,0,1,191.37,308.6Z" transform="translate(-188.245 -304)"/></g><g transform="translate(23.153 24.997)"><path d="M284.7,304a3.125,3.125,0,1,0,3.125,3.125A3.128,3.128,0,0,0,284.7,304Zm0,4.6a1.48,1.48,0,1,1,1.48-1.48A1.482,1.482,0,0,1,284.7,308.6Z" transform="translate(-281.578 -304)"/></g><g transform="translate(30.828 24.997)"><path d="M378.037,304a3.125,3.125,0,1,0,3.125,3.125A3.128,3.128,0,0,0,378.037,304Zm0,4.6a1.48,1.48,0,1,1,1.48-1.48A1.482,1.482,0,0,1,378.037,308.6Z" transform="translate(-374.912 -304)"/></g><g transform="translate(7.804 16.445)"><path d="M98.037,200a3.125,3.125,0,1,0,3.125,3.125A3.128,3.128,0,0,0,98.037,200Zm0,4.6a1.48,1.48,0,1,1,1.48-1.48A1.482,1.482,0,0,1,98.037,204.6Z" transform="translate(-94.912 -200)"/></g><g transform="translate(23.153 16.445)"><path d="M284.7,200a3.125,3.125,0,1,0,3.125,3.125A3.128,3.128,0,0,0,284.7,200Zm0,4.6a1.48,1.48,0,1,1,1.48-1.48A1.482,1.482,0,0,1,284.7,204.6Z" transform="translate(-281.578 -200)"/></g><g transform="translate(30.828 16.445)"><path d="M378.037,200a3.125,3.125,0,1,0,3.125,3.125A3.128,3.128,0,0,0,378.037,200Zm0,4.6a1.48,1.48,0,1,1,1.48-1.48A1.482,1.482,0,0,1,378.037,204.6Z" transform="translate(-374.912 -200)"/></g><g transform="translate(15.479 16.445)"><path d="M191.37,200a3.125,3.125,0,1,0,3.125,3.125A3.128,3.128,0,0,0,191.37,200Zm0,4.6a1.48,1.48,0,1,1,1.48-1.48A1.482,1.482,0,0,1,191.37,204.6Z" transform="translate(-188.245 -200)"/></g><g transform="translate(4.21 28.672)"><path d="M57.354,348.941a.822.822,0,0,0-1.163,0l-2.678,2.678L52.6,350.7a.822.822,0,0,0-1.163,1.163l1.5,1.5a.822.822,0,0,0,1.163,0l3.259-3.259A.822.822,0,0,0,57.354,348.941Z" transform="translate(-51.194 -348.7)"/></g></g></g></g></svg>