<svg xmlns="http://www.w3.org/2000/svg" width="122" height="92.479" viewBox="0 0 122 92.479"><defs><style>.a,.b{fill:#000;}.a{font-size:18px;font-family:Montserrat-Bold, Montserrat;font-weight:700;}</style></defs><text class="a" transform="translate(0 67.479)"><tspan x="9.655" y="18">INDUSTRIA</tspan></text><g transform="translate(23.115)"><path class="b" d="M66.882,68.831V66.219A3.923,3.923,0,0,0,62.963,62.3H59.442l-.4-13.1a2.621,2.621,0,0,0-2.612-2.573H53.821A2.62,2.62,0,0,0,51.209,49.2l-.4,13.1H46.379l-.4-13.1a2.62,2.62,0,0,0-2.612-2.573H40.757A2.62,2.62,0,0,0,38.146,49.2l-.4,13.1H33.316l-.4-13.1a2.621,2.621,0,0,0-2.612-2.573H27.694A2.621,2.621,0,0,0,25.082,49.2l-.4,13.1H19.817l-.709-23.411a5.157,5.157,0,0,0,1.19-.965,6.382,6.382,0,1,0-3.36-8.677q-.237-.022-.477-.022a5.2,5.2,0,0,0-4.824,7.124,2.637,2.637,0,0,0-1.676,2.4L9.088,67.525H3.919A3.923,3.923,0,0,0,0,71.444v2.613a3.925,3.925,0,0,0,2.613,3.694V83.2H1.306a1.306,1.306,0,0,0,0,2.613h64.27a1.306,1.306,0,0,0,0-2.613H64.27V72.526a3.926,3.926,0,0,0,2.613-3.694ZM53.82,49.276a.069.069,0,0,1,.012-.039h2.59a.07.07,0,0,1,.012.039L56.829,62.3h-3.4Zm-13.063,0a.069.069,0,0,1,.012-.039h2.59a.069.069,0,0,1,.012.039L43.765,62.3h-3.4Zm-13.063,0a.068.068,0,0,1,.012-.039H30.3a.068.068,0,0,1,.012.039L30.7,62.3H27.3ZM16.46,31.838a2.577,2.577,0,0,1,.872.151,1.306,1.306,0,0,0,1.707-.909,3.77,3.77,0,1,1,1.577,4.074,1.306,1.306,0,0,0-1.875.476,2.61,2.61,0,0,1-.866.946,2.581,2.581,0,0,0-1.385-.4H14.566a2.581,2.581,0,0,1,1.894-4.336Zm-3.889,6.988a.068.068,0,0,1,.012-.039h3.9a.068.068,0,0,1,.012.039l.718,23.71a3.917,3.917,0,0,0-2.355,4.989H11.7ZM2.613,71.444a1.308,1.308,0,0,1,1.306-1.306H17.243V72.75H6.532a1.306,1.306,0,0,0-1.306,1.306,1.306,1.306,0,1,1-2.613,0ZM5.225,83.2V77.749a3.936,3.936,0,0,0,2.389-2.386h9.629V83.2Zm14.63,0V70.137H34.878a1.306,1.306,0,1,0,0-2.613H18.549a1.306,1.306,0,1,1,0-2.612H62.963a1.308,1.308,0,0,1,1.306,1.306v2.613a1.306,1.306,0,1,1-2.613,0,1.306,1.306,0,0,0-1.306-1.306H46.634a1.306,1.306,0,1,0,0,2.613H59.269a3.936,3.936,0,0,0,2.389,2.386V83.2Z" transform="translate(0 -25.626)"/><path class="b" d="M175.806,386.373a1.306,1.306,0,0,0-1.306,1.306v2.612a1.306,1.306,0,1,0,2.613,0v-2.612A1.306,1.306,0,0,0,175.806,386.373Z" transform="translate(-151.705 -339.249)"/><path class="b" d="M218.306,386.373A1.306,1.306,0,0,0,217,387.679v2.612a1.306,1.306,0,1,0,2.613,0v-2.612A1.306,1.306,0,0,0,218.306,386.373Z" transform="translate(-188.653 -339.249)"/><path class="b" d="M260.806,386.373a1.306,1.306,0,0,0-1.306,1.306v2.612a1.306,1.306,0,1,0,2.613,0v-2.612A1.306,1.306,0,0,0,260.806,386.373Z" transform="translate(-225.602 -339.249)"/><path class="b" d="M303.306,386.373A1.306,1.306,0,0,0,302,387.679v2.612a1.306,1.306,0,1,0,2.613,0v-2.612A1.306,1.306,0,0,0,303.306,386.373Z" transform="translate(-262.55 -339.249)"/><path class="b" d="M345.806,386.373a1.306,1.306,0,0,0-1.306,1.306v2.612a1.306,1.306,0,1,0,2.613,0v-2.612A1.306,1.306,0,0,0,345.806,386.373Z" transform="translate(-299.498 -339.249)"/><path class="b" d="M388.306,386.373A1.306,1.306,0,0,0,387,387.679v2.612a1.306,1.306,0,1,0,2.613,0v-2.612A1.306,1.306,0,0,0,388.306,386.373Z" transform="translate(-336.446 -339.249)"/><path class="b" d="M430.806,386.373a1.306,1.306,0,0,0-1.306,1.306v2.612a1.306,1.306,0,1,0,2.613,0v-2.612A1.306,1.306,0,0,0,430.806,386.373Z" transform="translate(-373.395 -339.249)"/><path class="b" d="M303.3,346.371h0a1.306,1.306,0,1,0,1.307,1.306A1.306,1.306,0,0,0,303.3,346.371Z" transform="translate(-262.547 -304.472)"/></g></svg>
